<svg version="1.1" class="clearos-svg clearfoundation app-vendor-clearfoundation app-free app-category-reports app-sub-category-performance-and-resources" viewBox="0 0 400 400" preserveAspectRatio="xMinYMin" xmlns="http://www.w3.org/2000/svg" xmlns:xlink= "http://www.w3.org/1999/xlink">
<path id="path28" fill="#AA0707" d="M441.666,184.647"/>
<path id="path30" fill="#AA0707" d="M473.245,247.805"/>
<path id="path32" fill="#AA0707" d="M441.666,184.647"/>
<path id="path34" fill="#AA0707" d="M473.245,247.805"/>
<g>
	<path fill="#686868" d="M350.544,185.2L71.031,8.127c0,0-10.717-8.65-20.828-4.422c-11.284,4.719-9.514,19.291-9.514,19.291
		v171.431l94.942-88.05v50.254h42.971v85.78h-42.971v51.077l-94.942-88.059v173.742c0,0-1.47,11.29,6.557,16.342
		c8.515,5.368,20.808-2.076,20.808-2.076l282.35-178.899c0,0,9.015-4.539,9.015-14.71C359.418,190.081,350.544,185.2,350.544,185.2z
		 M211.896,242.411h-18.993v-85.78h18.993V242.411z M240.439,242.411h-14.236v-85.78h14.236V242.411z M264.202,242.411h-9.468
		v-85.78h9.468V242.411z"/>
</g>
</svg>
